%TF.GenerationSoftware,KiCad,Pcbnew,(5.1.10)-1*%
%TF.CreationDate,2021-08-19T16:33:58+09:00*%
%TF.ProjectId,ZeroGravity,5a65726f-4772-4617-9669-74792e6b6963,rev?*%
%TF.SameCoordinates,Original*%
%TF.FileFunction,Paste,Top*%
%TF.FilePolarity,Positive*%
%FSLAX46Y46*%
G04 Gerber Fmt 4.6, Leading zero omitted, Abs format (unit mm)*
G04 Created by KiCad (PCBNEW (5.1.10)-1) date 2021-08-19 16:33:58*
%MOMM*%
%LPD*%
G01*
G04 APERTURE LIST*
%ADD10R,2.100000X1.700000*%
%ADD11C,0.100000*%
%ADD12R,0.700000X1.500000*%
%ADD13R,1.300000X0.600000*%
%ADD14R,1.500000X1.900000*%
%ADD15R,0.400000X1.350000*%
G04 APERTURE END LIST*
%TO.C,R29*%
G36*
G01*
X47550000Y-153937500D02*
X47550000Y-153462500D01*
G75*
G02*
X47787500Y-153225000I237500J0D01*
G01*
X48287500Y-153225000D01*
G75*
G02*
X48525000Y-153462500I0J-237500D01*
G01*
X48525000Y-153937500D01*
G75*
G02*
X48287500Y-154175000I-237500J0D01*
G01*
X47787500Y-154175000D01*
G75*
G02*
X47550000Y-153937500I0J237500D01*
G01*
G37*
G36*
G01*
X45725000Y-153937500D02*
X45725000Y-153462500D01*
G75*
G02*
X45962500Y-153225000I237500J0D01*
G01*
X46462500Y-153225000D01*
G75*
G02*
X46700000Y-153462500I0J-237500D01*
G01*
X46700000Y-153937500D01*
G75*
G02*
X46462500Y-154175000I-237500J0D01*
G01*
X45962500Y-154175000D01*
G75*
G02*
X45725000Y-153937500I0J237500D01*
G01*
G37*
%TD*%
%TO.C,R28*%
G36*
G01*
X47500000Y-151387500D02*
X47500000Y-150912500D01*
G75*
G02*
X47737500Y-150675000I237500J0D01*
G01*
X48237500Y-150675000D01*
G75*
G02*
X48475000Y-150912500I0J-237500D01*
G01*
X48475000Y-151387500D01*
G75*
G02*
X48237500Y-151625000I-237500J0D01*
G01*
X47737500Y-151625000D01*
G75*
G02*
X47500000Y-151387500I0J237500D01*
G01*
G37*
G36*
G01*
X45675000Y-151387500D02*
X45675000Y-150912500D01*
G75*
G02*
X45912500Y-150675000I237500J0D01*
G01*
X46412500Y-150675000D01*
G75*
G02*
X46650000Y-150912500I0J-237500D01*
G01*
X46650000Y-151387500D01*
G75*
G02*
X46412500Y-151625000I-237500J0D01*
G01*
X45912500Y-151625000D01*
G75*
G02*
X45675000Y-151387500I0J237500D01*
G01*
G37*
%TD*%
%TO.C,R27*%
G36*
G01*
X98987500Y-17837500D02*
X98987500Y-17362500D01*
G75*
G02*
X99225000Y-17125000I237500J0D01*
G01*
X99725000Y-17125000D01*
G75*
G02*
X99962500Y-17362500I0J-237500D01*
G01*
X99962500Y-17837500D01*
G75*
G02*
X99725000Y-18075000I-237500J0D01*
G01*
X99225000Y-18075000D01*
G75*
G02*
X98987500Y-17837500I0J237500D01*
G01*
G37*
G36*
G01*
X97162500Y-17837500D02*
X97162500Y-17362500D01*
G75*
G02*
X97400000Y-17125000I237500J0D01*
G01*
X97900000Y-17125000D01*
G75*
G02*
X98137500Y-17362500I0J-237500D01*
G01*
X98137500Y-17837500D01*
G75*
G02*
X97900000Y-18075000I-237500J0D01*
G01*
X97400000Y-18075000D01*
G75*
G02*
X97162500Y-17837500I0J237500D01*
G01*
G37*
%TD*%
%TO.C,R26*%
G36*
G01*
X99762500Y-47087500D02*
X99762500Y-46612500D01*
G75*
G02*
X100000000Y-46375000I237500J0D01*
G01*
X100500000Y-46375000D01*
G75*
G02*
X100737500Y-46612500I0J-237500D01*
G01*
X100737500Y-47087500D01*
G75*
G02*
X100500000Y-47325000I-237500J0D01*
G01*
X100000000Y-47325000D01*
G75*
G02*
X99762500Y-47087500I0J237500D01*
G01*
G37*
G36*
G01*
X97937500Y-47087500D02*
X97937500Y-46612500D01*
G75*
G02*
X98175000Y-46375000I237500J0D01*
G01*
X98675000Y-46375000D01*
G75*
G02*
X98912500Y-46612500I0J-237500D01*
G01*
X98912500Y-47087500D01*
G75*
G02*
X98675000Y-47325000I-237500J0D01*
G01*
X98175000Y-47325000D01*
G75*
G02*
X97937500Y-47087500I0J237500D01*
G01*
G37*
%TD*%
%TO.C,R25*%
G36*
G01*
X99500000Y-109087500D02*
X99500000Y-108612500D01*
G75*
G02*
X99737500Y-108375000I237500J0D01*
G01*
X100237500Y-108375000D01*
G75*
G02*
X100475000Y-108612500I0J-237500D01*
G01*
X100475000Y-109087500D01*
G75*
G02*
X100237500Y-109325000I-237500J0D01*
G01*
X99737500Y-109325000D01*
G75*
G02*
X99500000Y-109087500I0J237500D01*
G01*
G37*
G36*
G01*
X97675000Y-109087500D02*
X97675000Y-108612500D01*
G75*
G02*
X97912500Y-108375000I237500J0D01*
G01*
X98412500Y-108375000D01*
G75*
G02*
X98650000Y-108612500I0J-237500D01*
G01*
X98650000Y-109087500D01*
G75*
G02*
X98412500Y-109325000I-237500J0D01*
G01*
X97912500Y-109325000D01*
G75*
G02*
X97675000Y-109087500I0J237500D01*
G01*
G37*
%TD*%
%TO.C,R24*%
G36*
G01*
X99675000Y-77362500D02*
X99675000Y-76887500D01*
G75*
G02*
X99912500Y-76650000I237500J0D01*
G01*
X100412500Y-76650000D01*
G75*
G02*
X100650000Y-76887500I0J-237500D01*
G01*
X100650000Y-77362500D01*
G75*
G02*
X100412500Y-77600000I-237500J0D01*
G01*
X99912500Y-77600000D01*
G75*
G02*
X99675000Y-77362500I0J237500D01*
G01*
G37*
G36*
G01*
X97850000Y-77362500D02*
X97850000Y-76887500D01*
G75*
G02*
X98087500Y-76650000I237500J0D01*
G01*
X98587500Y-76650000D01*
G75*
G02*
X98825000Y-76887500I0J-237500D01*
G01*
X98825000Y-77362500D01*
G75*
G02*
X98587500Y-77600000I-237500J0D01*
G01*
X98087500Y-77600000D01*
G75*
G02*
X97850000Y-77362500I0J237500D01*
G01*
G37*
%TD*%
%TO.C,R23*%
G36*
G01*
X100206562Y-169051356D02*
X100206562Y-168576356D01*
G75*
G02*
X100444062Y-168338856I237500J0D01*
G01*
X100944062Y-168338856D01*
G75*
G02*
X101181562Y-168576356I0J-237500D01*
G01*
X101181562Y-169051356D01*
G75*
G02*
X100944062Y-169288856I-237500J0D01*
G01*
X100444062Y-169288856D01*
G75*
G02*
X100206562Y-169051356I0J237500D01*
G01*
G37*
G36*
G01*
X98381562Y-169051356D02*
X98381562Y-168576356D01*
G75*
G02*
X98619062Y-168338856I237500J0D01*
G01*
X99119062Y-168338856D01*
G75*
G02*
X99356562Y-168576356I0J-237500D01*
G01*
X99356562Y-169051356D01*
G75*
G02*
X99119062Y-169288856I-237500J0D01*
G01*
X98619062Y-169288856D01*
G75*
G02*
X98381562Y-169051356I0J237500D01*
G01*
G37*
%TD*%
%TO.C,R22*%
G36*
G01*
X98737500Y-137737500D02*
X98737500Y-137262500D01*
G75*
G02*
X98975000Y-137025000I237500J0D01*
G01*
X99475000Y-137025000D01*
G75*
G02*
X99712500Y-137262500I0J-237500D01*
G01*
X99712500Y-137737500D01*
G75*
G02*
X99475000Y-137975000I-237500J0D01*
G01*
X98975000Y-137975000D01*
G75*
G02*
X98737500Y-137737500I0J237500D01*
G01*
G37*
G36*
G01*
X96912500Y-137737500D02*
X96912500Y-137262500D01*
G75*
G02*
X97150000Y-137025000I237500J0D01*
G01*
X97650000Y-137025000D01*
G75*
G02*
X97887500Y-137262500I0J-237500D01*
G01*
X97887500Y-137737500D01*
G75*
G02*
X97650000Y-137975000I-237500J0D01*
G01*
X97150000Y-137975000D01*
G75*
G02*
X96912500Y-137737500I0J237500D01*
G01*
G37*
%TD*%
%TO.C,U1*%
G36*
G01*
X59575000Y-111250000D02*
X59575000Y-109850000D01*
G75*
G02*
X59650000Y-109775000I75000J0D01*
G01*
X59800000Y-109775000D01*
G75*
G02*
X59875000Y-109850000I0J-75000D01*
G01*
X59875000Y-111250000D01*
G75*
G02*
X59800000Y-111325000I-75000J0D01*
G01*
X59650000Y-111325000D01*
G75*
G02*
X59575000Y-111250000I0J75000D01*
G01*
G37*
G36*
G01*
X60075000Y-111250000D02*
X60075000Y-109850000D01*
G75*
G02*
X60150000Y-109775000I75000J0D01*
G01*
X60300000Y-109775000D01*
G75*
G02*
X60375000Y-109850000I0J-75000D01*
G01*
X60375000Y-111250000D01*
G75*
G02*
X60300000Y-111325000I-75000J0D01*
G01*
X60150000Y-111325000D01*
G75*
G02*
X60075000Y-111250000I0J75000D01*
G01*
G37*
G36*
G01*
X60575000Y-111250000D02*
X60575000Y-109850000D01*
G75*
G02*
X60650000Y-109775000I75000J0D01*
G01*
X60800000Y-109775000D01*
G75*
G02*
X60875000Y-109850000I0J-75000D01*
G01*
X60875000Y-111250000D01*
G75*
G02*
X60800000Y-111325000I-75000J0D01*
G01*
X60650000Y-111325000D01*
G75*
G02*
X60575000Y-111250000I0J75000D01*
G01*
G37*
G36*
G01*
X61075000Y-111250000D02*
X61075000Y-109850000D01*
G75*
G02*
X61150000Y-109775000I75000J0D01*
G01*
X61300000Y-109775000D01*
G75*
G02*
X61375000Y-109850000I0J-75000D01*
G01*
X61375000Y-111250000D01*
G75*
G02*
X61300000Y-111325000I-75000J0D01*
G01*
X61150000Y-111325000D01*
G75*
G02*
X61075000Y-111250000I0J75000D01*
G01*
G37*
G36*
G01*
X61575000Y-111250000D02*
X61575000Y-109850000D01*
G75*
G02*
X61650000Y-109775000I75000J0D01*
G01*
X61800000Y-109775000D01*
G75*
G02*
X61875000Y-109850000I0J-75000D01*
G01*
X61875000Y-111250000D01*
G75*
G02*
X61800000Y-111325000I-75000J0D01*
G01*
X61650000Y-111325000D01*
G75*
G02*
X61575000Y-111250000I0J75000D01*
G01*
G37*
G36*
G01*
X62075000Y-111250000D02*
X62075000Y-109850000D01*
G75*
G02*
X62150000Y-109775000I75000J0D01*
G01*
X62300000Y-109775000D01*
G75*
G02*
X62375000Y-109850000I0J-75000D01*
G01*
X62375000Y-111250000D01*
G75*
G02*
X62300000Y-111325000I-75000J0D01*
G01*
X62150000Y-111325000D01*
G75*
G02*
X62075000Y-111250000I0J75000D01*
G01*
G37*
G36*
G01*
X62575000Y-111250000D02*
X62575000Y-109850000D01*
G75*
G02*
X62650000Y-109775000I75000J0D01*
G01*
X62800000Y-109775000D01*
G75*
G02*
X62875000Y-109850000I0J-75000D01*
G01*
X62875000Y-111250000D01*
G75*
G02*
X62800000Y-111325000I-75000J0D01*
G01*
X62650000Y-111325000D01*
G75*
G02*
X62575000Y-111250000I0J75000D01*
G01*
G37*
G36*
G01*
X63075000Y-111250000D02*
X63075000Y-109850000D01*
G75*
G02*
X63150000Y-109775000I75000J0D01*
G01*
X63300000Y-109775000D01*
G75*
G02*
X63375000Y-109850000I0J-75000D01*
G01*
X63375000Y-111250000D01*
G75*
G02*
X63300000Y-111325000I-75000J0D01*
G01*
X63150000Y-111325000D01*
G75*
G02*
X63075000Y-111250000I0J75000D01*
G01*
G37*
G36*
G01*
X63575000Y-111250000D02*
X63575000Y-109850000D01*
G75*
G02*
X63650000Y-109775000I75000J0D01*
G01*
X63800000Y-109775000D01*
G75*
G02*
X63875000Y-109850000I0J-75000D01*
G01*
X63875000Y-111250000D01*
G75*
G02*
X63800000Y-111325000I-75000J0D01*
G01*
X63650000Y-111325000D01*
G75*
G02*
X63575000Y-111250000I0J75000D01*
G01*
G37*
G36*
G01*
X64075000Y-111250000D02*
X64075000Y-109850000D01*
G75*
G02*
X64150000Y-109775000I75000J0D01*
G01*
X64300000Y-109775000D01*
G75*
G02*
X64375000Y-109850000I0J-75000D01*
G01*
X64375000Y-111250000D01*
G75*
G02*
X64300000Y-111325000I-75000J0D01*
G01*
X64150000Y-111325000D01*
G75*
G02*
X64075000Y-111250000I0J75000D01*
G01*
G37*
G36*
G01*
X64575000Y-111250000D02*
X64575000Y-109850000D01*
G75*
G02*
X64650000Y-109775000I75000J0D01*
G01*
X64800000Y-109775000D01*
G75*
G02*
X64875000Y-109850000I0J-75000D01*
G01*
X64875000Y-111250000D01*
G75*
G02*
X64800000Y-111325000I-75000J0D01*
G01*
X64650000Y-111325000D01*
G75*
G02*
X64575000Y-111250000I0J75000D01*
G01*
G37*
G36*
G01*
X65075000Y-111250000D02*
X65075000Y-109850000D01*
G75*
G02*
X65150000Y-109775000I75000J0D01*
G01*
X65300000Y-109775000D01*
G75*
G02*
X65375000Y-109850000I0J-75000D01*
G01*
X65375000Y-111250000D01*
G75*
G02*
X65300000Y-111325000I-75000J0D01*
G01*
X65150000Y-111325000D01*
G75*
G02*
X65075000Y-111250000I0J75000D01*
G01*
G37*
G36*
G01*
X65575000Y-111250000D02*
X65575000Y-109850000D01*
G75*
G02*
X65650000Y-109775000I75000J0D01*
G01*
X65800000Y-109775000D01*
G75*
G02*
X65875000Y-109850000I0J-75000D01*
G01*
X65875000Y-111250000D01*
G75*
G02*
X65800000Y-111325000I-75000J0D01*
G01*
X65650000Y-111325000D01*
G75*
G02*
X65575000Y-111250000I0J75000D01*
G01*
G37*
G36*
G01*
X66075000Y-111250000D02*
X66075000Y-109850000D01*
G75*
G02*
X66150000Y-109775000I75000J0D01*
G01*
X66300000Y-109775000D01*
G75*
G02*
X66375000Y-109850000I0J-75000D01*
G01*
X66375000Y-111250000D01*
G75*
G02*
X66300000Y-111325000I-75000J0D01*
G01*
X66150000Y-111325000D01*
G75*
G02*
X66075000Y-111250000I0J75000D01*
G01*
G37*
G36*
G01*
X66575000Y-111250000D02*
X66575000Y-109850000D01*
G75*
G02*
X66650000Y-109775000I75000J0D01*
G01*
X66800000Y-109775000D01*
G75*
G02*
X66875000Y-109850000I0J-75000D01*
G01*
X66875000Y-111250000D01*
G75*
G02*
X66800000Y-111325000I-75000J0D01*
G01*
X66650000Y-111325000D01*
G75*
G02*
X66575000Y-111250000I0J75000D01*
G01*
G37*
G36*
G01*
X67075000Y-111250000D02*
X67075000Y-109850000D01*
G75*
G02*
X67150000Y-109775000I75000J0D01*
G01*
X67300000Y-109775000D01*
G75*
G02*
X67375000Y-109850000I0J-75000D01*
G01*
X67375000Y-111250000D01*
G75*
G02*
X67300000Y-111325000I-75000J0D01*
G01*
X67150000Y-111325000D01*
G75*
G02*
X67075000Y-111250000I0J75000D01*
G01*
G37*
G36*
G01*
X68375000Y-112550000D02*
X68375000Y-112400000D01*
G75*
G02*
X68450000Y-112325000I75000J0D01*
G01*
X69850000Y-112325000D01*
G75*
G02*
X69925000Y-112400000I0J-75000D01*
G01*
X69925000Y-112550000D01*
G75*
G02*
X69850000Y-112625000I-75000J0D01*
G01*
X68450000Y-112625000D01*
G75*
G02*
X68375000Y-112550000I0J75000D01*
G01*
G37*
G36*
G01*
X68375000Y-113050000D02*
X68375000Y-112900000D01*
G75*
G02*
X68450000Y-112825000I75000J0D01*
G01*
X69850000Y-112825000D01*
G75*
G02*
X69925000Y-112900000I0J-75000D01*
G01*
X69925000Y-113050000D01*
G75*
G02*
X69850000Y-113125000I-75000J0D01*
G01*
X68450000Y-113125000D01*
G75*
G02*
X68375000Y-113050000I0J75000D01*
G01*
G37*
G36*
G01*
X68375000Y-113550000D02*
X68375000Y-113400000D01*
G75*
G02*
X68450000Y-113325000I75000J0D01*
G01*
X69850000Y-113325000D01*
G75*
G02*
X69925000Y-113400000I0J-75000D01*
G01*
X69925000Y-113550000D01*
G75*
G02*
X69850000Y-113625000I-75000J0D01*
G01*
X68450000Y-113625000D01*
G75*
G02*
X68375000Y-113550000I0J75000D01*
G01*
G37*
G36*
G01*
X68375000Y-114050000D02*
X68375000Y-113900000D01*
G75*
G02*
X68450000Y-113825000I75000J0D01*
G01*
X69850000Y-113825000D01*
G75*
G02*
X69925000Y-113900000I0J-75000D01*
G01*
X69925000Y-114050000D01*
G75*
G02*
X69850000Y-114125000I-75000J0D01*
G01*
X68450000Y-114125000D01*
G75*
G02*
X68375000Y-114050000I0J75000D01*
G01*
G37*
G36*
G01*
X68375000Y-114550000D02*
X68375000Y-114400000D01*
G75*
G02*
X68450000Y-114325000I75000J0D01*
G01*
X69850000Y-114325000D01*
G75*
G02*
X69925000Y-114400000I0J-75000D01*
G01*
X69925000Y-114550000D01*
G75*
G02*
X69850000Y-114625000I-75000J0D01*
G01*
X68450000Y-114625000D01*
G75*
G02*
X68375000Y-114550000I0J75000D01*
G01*
G37*
G36*
G01*
X68375000Y-115050000D02*
X68375000Y-114900000D01*
G75*
G02*
X68450000Y-114825000I75000J0D01*
G01*
X69850000Y-114825000D01*
G75*
G02*
X69925000Y-114900000I0J-75000D01*
G01*
X69925000Y-115050000D01*
G75*
G02*
X69850000Y-115125000I-75000J0D01*
G01*
X68450000Y-115125000D01*
G75*
G02*
X68375000Y-115050000I0J75000D01*
G01*
G37*
G36*
G01*
X68375000Y-115550000D02*
X68375000Y-115400000D01*
G75*
G02*
X68450000Y-115325000I75000J0D01*
G01*
X69850000Y-115325000D01*
G75*
G02*
X69925000Y-115400000I0J-75000D01*
G01*
X69925000Y-115550000D01*
G75*
G02*
X69850000Y-115625000I-75000J0D01*
G01*
X68450000Y-115625000D01*
G75*
G02*
X68375000Y-115550000I0J75000D01*
G01*
G37*
G36*
G01*
X68375000Y-116050000D02*
X68375000Y-115900000D01*
G75*
G02*
X68450000Y-115825000I75000J0D01*
G01*
X69850000Y-115825000D01*
G75*
G02*
X69925000Y-115900000I0J-75000D01*
G01*
X69925000Y-116050000D01*
G75*
G02*
X69850000Y-116125000I-75000J0D01*
G01*
X68450000Y-116125000D01*
G75*
G02*
X68375000Y-116050000I0J75000D01*
G01*
G37*
G36*
G01*
X68375000Y-116550000D02*
X68375000Y-116400000D01*
G75*
G02*
X68450000Y-116325000I75000J0D01*
G01*
X69850000Y-116325000D01*
G75*
G02*
X69925000Y-116400000I0J-75000D01*
G01*
X69925000Y-116550000D01*
G75*
G02*
X69850000Y-116625000I-75000J0D01*
G01*
X68450000Y-116625000D01*
G75*
G02*
X68375000Y-116550000I0J75000D01*
G01*
G37*
G36*
G01*
X68375000Y-117050000D02*
X68375000Y-116900000D01*
G75*
G02*
X68450000Y-116825000I75000J0D01*
G01*
X69850000Y-116825000D01*
G75*
G02*
X69925000Y-116900000I0J-75000D01*
G01*
X69925000Y-117050000D01*
G75*
G02*
X69850000Y-117125000I-75000J0D01*
G01*
X68450000Y-117125000D01*
G75*
G02*
X68375000Y-117050000I0J75000D01*
G01*
G37*
G36*
G01*
X68375000Y-117550000D02*
X68375000Y-117400000D01*
G75*
G02*
X68450000Y-117325000I75000J0D01*
G01*
X69850000Y-117325000D01*
G75*
G02*
X69925000Y-117400000I0J-75000D01*
G01*
X69925000Y-117550000D01*
G75*
G02*
X69850000Y-117625000I-75000J0D01*
G01*
X68450000Y-117625000D01*
G75*
G02*
X68375000Y-117550000I0J75000D01*
G01*
G37*
G36*
G01*
X68375000Y-118050000D02*
X68375000Y-117900000D01*
G75*
G02*
X68450000Y-117825000I75000J0D01*
G01*
X69850000Y-117825000D01*
G75*
G02*
X69925000Y-117900000I0J-75000D01*
G01*
X69925000Y-118050000D01*
G75*
G02*
X69850000Y-118125000I-75000J0D01*
G01*
X68450000Y-118125000D01*
G75*
G02*
X68375000Y-118050000I0J75000D01*
G01*
G37*
G36*
G01*
X68375000Y-118550000D02*
X68375000Y-118400000D01*
G75*
G02*
X68450000Y-118325000I75000J0D01*
G01*
X69850000Y-118325000D01*
G75*
G02*
X69925000Y-118400000I0J-75000D01*
G01*
X69925000Y-118550000D01*
G75*
G02*
X69850000Y-118625000I-75000J0D01*
G01*
X68450000Y-118625000D01*
G75*
G02*
X68375000Y-118550000I0J75000D01*
G01*
G37*
G36*
G01*
X68375000Y-119050000D02*
X68375000Y-118900000D01*
G75*
G02*
X68450000Y-118825000I75000J0D01*
G01*
X69850000Y-118825000D01*
G75*
G02*
X69925000Y-118900000I0J-75000D01*
G01*
X69925000Y-119050000D01*
G75*
G02*
X69850000Y-119125000I-75000J0D01*
G01*
X68450000Y-119125000D01*
G75*
G02*
X68375000Y-119050000I0J75000D01*
G01*
G37*
G36*
G01*
X68375000Y-119550000D02*
X68375000Y-119400000D01*
G75*
G02*
X68450000Y-119325000I75000J0D01*
G01*
X69850000Y-119325000D01*
G75*
G02*
X69925000Y-119400000I0J-75000D01*
G01*
X69925000Y-119550000D01*
G75*
G02*
X69850000Y-119625000I-75000J0D01*
G01*
X68450000Y-119625000D01*
G75*
G02*
X68375000Y-119550000I0J75000D01*
G01*
G37*
G36*
G01*
X68375000Y-120050000D02*
X68375000Y-119900000D01*
G75*
G02*
X68450000Y-119825000I75000J0D01*
G01*
X69850000Y-119825000D01*
G75*
G02*
X69925000Y-119900000I0J-75000D01*
G01*
X69925000Y-120050000D01*
G75*
G02*
X69850000Y-120125000I-75000J0D01*
G01*
X68450000Y-120125000D01*
G75*
G02*
X68375000Y-120050000I0J75000D01*
G01*
G37*
G36*
G01*
X67075000Y-122600000D02*
X67075000Y-121200000D01*
G75*
G02*
X67150000Y-121125000I75000J0D01*
G01*
X67300000Y-121125000D01*
G75*
G02*
X67375000Y-121200000I0J-75000D01*
G01*
X67375000Y-122600000D01*
G75*
G02*
X67300000Y-122675000I-75000J0D01*
G01*
X67150000Y-122675000D01*
G75*
G02*
X67075000Y-122600000I0J75000D01*
G01*
G37*
G36*
G01*
X66575000Y-122600000D02*
X66575000Y-121200000D01*
G75*
G02*
X66650000Y-121125000I75000J0D01*
G01*
X66800000Y-121125000D01*
G75*
G02*
X66875000Y-121200000I0J-75000D01*
G01*
X66875000Y-122600000D01*
G75*
G02*
X66800000Y-122675000I-75000J0D01*
G01*
X66650000Y-122675000D01*
G75*
G02*
X66575000Y-122600000I0J75000D01*
G01*
G37*
G36*
G01*
X66075000Y-122600000D02*
X66075000Y-121200000D01*
G75*
G02*
X66150000Y-121125000I75000J0D01*
G01*
X66300000Y-121125000D01*
G75*
G02*
X66375000Y-121200000I0J-75000D01*
G01*
X66375000Y-122600000D01*
G75*
G02*
X66300000Y-122675000I-75000J0D01*
G01*
X66150000Y-122675000D01*
G75*
G02*
X66075000Y-122600000I0J75000D01*
G01*
G37*
G36*
G01*
X65575000Y-122600000D02*
X65575000Y-121200000D01*
G75*
G02*
X65650000Y-121125000I75000J0D01*
G01*
X65800000Y-121125000D01*
G75*
G02*
X65875000Y-121200000I0J-75000D01*
G01*
X65875000Y-122600000D01*
G75*
G02*
X65800000Y-122675000I-75000J0D01*
G01*
X65650000Y-122675000D01*
G75*
G02*
X65575000Y-122600000I0J75000D01*
G01*
G37*
G36*
G01*
X65075000Y-122600000D02*
X65075000Y-121200000D01*
G75*
G02*
X65150000Y-121125000I75000J0D01*
G01*
X65300000Y-121125000D01*
G75*
G02*
X65375000Y-121200000I0J-75000D01*
G01*
X65375000Y-122600000D01*
G75*
G02*
X65300000Y-122675000I-75000J0D01*
G01*
X65150000Y-122675000D01*
G75*
G02*
X65075000Y-122600000I0J75000D01*
G01*
G37*
G36*
G01*
X64575000Y-122600000D02*
X64575000Y-121200000D01*
G75*
G02*
X64650000Y-121125000I75000J0D01*
G01*
X64800000Y-121125000D01*
G75*
G02*
X64875000Y-121200000I0J-75000D01*
G01*
X64875000Y-122600000D01*
G75*
G02*
X64800000Y-122675000I-75000J0D01*
G01*
X64650000Y-122675000D01*
G75*
G02*
X64575000Y-122600000I0J75000D01*
G01*
G37*
G36*
G01*
X64075000Y-122600000D02*
X64075000Y-121200000D01*
G75*
G02*
X64150000Y-121125000I75000J0D01*
G01*
X64300000Y-121125000D01*
G75*
G02*
X64375000Y-121200000I0J-75000D01*
G01*
X64375000Y-122600000D01*
G75*
G02*
X64300000Y-122675000I-75000J0D01*
G01*
X64150000Y-122675000D01*
G75*
G02*
X64075000Y-122600000I0J75000D01*
G01*
G37*
G36*
G01*
X63575000Y-122600000D02*
X63575000Y-121200000D01*
G75*
G02*
X63650000Y-121125000I75000J0D01*
G01*
X63800000Y-121125000D01*
G75*
G02*
X63875000Y-121200000I0J-75000D01*
G01*
X63875000Y-122600000D01*
G75*
G02*
X63800000Y-122675000I-75000J0D01*
G01*
X63650000Y-122675000D01*
G75*
G02*
X63575000Y-122600000I0J75000D01*
G01*
G37*
G36*
G01*
X63075000Y-122600000D02*
X63075000Y-121200000D01*
G75*
G02*
X63150000Y-121125000I75000J0D01*
G01*
X63300000Y-121125000D01*
G75*
G02*
X63375000Y-121200000I0J-75000D01*
G01*
X63375000Y-122600000D01*
G75*
G02*
X63300000Y-122675000I-75000J0D01*
G01*
X63150000Y-122675000D01*
G75*
G02*
X63075000Y-122600000I0J75000D01*
G01*
G37*
G36*
G01*
X62575000Y-122600000D02*
X62575000Y-121200000D01*
G75*
G02*
X62650000Y-121125000I75000J0D01*
G01*
X62800000Y-121125000D01*
G75*
G02*
X62875000Y-121200000I0J-75000D01*
G01*
X62875000Y-122600000D01*
G75*
G02*
X62800000Y-122675000I-75000J0D01*
G01*
X62650000Y-122675000D01*
G75*
G02*
X62575000Y-122600000I0J75000D01*
G01*
G37*
G36*
G01*
X62075000Y-122600000D02*
X62075000Y-121200000D01*
G75*
G02*
X62150000Y-121125000I75000J0D01*
G01*
X62300000Y-121125000D01*
G75*
G02*
X62375000Y-121200000I0J-75000D01*
G01*
X62375000Y-122600000D01*
G75*
G02*
X62300000Y-122675000I-75000J0D01*
G01*
X62150000Y-122675000D01*
G75*
G02*
X62075000Y-122600000I0J75000D01*
G01*
G37*
G36*
G01*
X61575000Y-122600000D02*
X61575000Y-121200000D01*
G75*
G02*
X61650000Y-121125000I75000J0D01*
G01*
X61800000Y-121125000D01*
G75*
G02*
X61875000Y-121200000I0J-75000D01*
G01*
X61875000Y-122600000D01*
G75*
G02*
X61800000Y-122675000I-75000J0D01*
G01*
X61650000Y-122675000D01*
G75*
G02*
X61575000Y-122600000I0J75000D01*
G01*
G37*
G36*
G01*
X61075000Y-122600000D02*
X61075000Y-121200000D01*
G75*
G02*
X61150000Y-121125000I75000J0D01*
G01*
X61300000Y-121125000D01*
G75*
G02*
X61375000Y-121200000I0J-75000D01*
G01*
X61375000Y-122600000D01*
G75*
G02*
X61300000Y-122675000I-75000J0D01*
G01*
X61150000Y-122675000D01*
G75*
G02*
X61075000Y-122600000I0J75000D01*
G01*
G37*
G36*
G01*
X60575000Y-122600000D02*
X60575000Y-121200000D01*
G75*
G02*
X60650000Y-121125000I75000J0D01*
G01*
X60800000Y-121125000D01*
G75*
G02*
X60875000Y-121200000I0J-75000D01*
G01*
X60875000Y-122600000D01*
G75*
G02*
X60800000Y-122675000I-75000J0D01*
G01*
X60650000Y-122675000D01*
G75*
G02*
X60575000Y-122600000I0J75000D01*
G01*
G37*
G36*
G01*
X60075000Y-122600000D02*
X60075000Y-121200000D01*
G75*
G02*
X60150000Y-121125000I75000J0D01*
G01*
X60300000Y-121125000D01*
G75*
G02*
X60375000Y-121200000I0J-75000D01*
G01*
X60375000Y-122600000D01*
G75*
G02*
X60300000Y-122675000I-75000J0D01*
G01*
X60150000Y-122675000D01*
G75*
G02*
X60075000Y-122600000I0J75000D01*
G01*
G37*
G36*
G01*
X59575000Y-122600000D02*
X59575000Y-121200000D01*
G75*
G02*
X59650000Y-121125000I75000J0D01*
G01*
X59800000Y-121125000D01*
G75*
G02*
X59875000Y-121200000I0J-75000D01*
G01*
X59875000Y-122600000D01*
G75*
G02*
X59800000Y-122675000I-75000J0D01*
G01*
X59650000Y-122675000D01*
G75*
G02*
X59575000Y-122600000I0J75000D01*
G01*
G37*
G36*
G01*
X57025000Y-120050000D02*
X57025000Y-119900000D01*
G75*
G02*
X57100000Y-119825000I75000J0D01*
G01*
X58500000Y-119825000D01*
G75*
G02*
X58575000Y-119900000I0J-75000D01*
G01*
X58575000Y-120050000D01*
G75*
G02*
X58500000Y-120125000I-75000J0D01*
G01*
X57100000Y-120125000D01*
G75*
G02*
X57025000Y-120050000I0J75000D01*
G01*
G37*
G36*
G01*
X57025000Y-119550000D02*
X57025000Y-119400000D01*
G75*
G02*
X57100000Y-119325000I75000J0D01*
G01*
X58500000Y-119325000D01*
G75*
G02*
X58575000Y-119400000I0J-75000D01*
G01*
X58575000Y-119550000D01*
G75*
G02*
X58500000Y-119625000I-75000J0D01*
G01*
X57100000Y-119625000D01*
G75*
G02*
X57025000Y-119550000I0J75000D01*
G01*
G37*
G36*
G01*
X57025000Y-119050000D02*
X57025000Y-118900000D01*
G75*
G02*
X57100000Y-118825000I75000J0D01*
G01*
X58500000Y-118825000D01*
G75*
G02*
X58575000Y-118900000I0J-75000D01*
G01*
X58575000Y-119050000D01*
G75*
G02*
X58500000Y-119125000I-75000J0D01*
G01*
X57100000Y-119125000D01*
G75*
G02*
X57025000Y-119050000I0J75000D01*
G01*
G37*
G36*
G01*
X57025000Y-118550000D02*
X57025000Y-118400000D01*
G75*
G02*
X57100000Y-118325000I75000J0D01*
G01*
X58500000Y-118325000D01*
G75*
G02*
X58575000Y-118400000I0J-75000D01*
G01*
X58575000Y-118550000D01*
G75*
G02*
X58500000Y-118625000I-75000J0D01*
G01*
X57100000Y-118625000D01*
G75*
G02*
X57025000Y-118550000I0J75000D01*
G01*
G37*
G36*
G01*
X57025000Y-118050000D02*
X57025000Y-117900000D01*
G75*
G02*
X57100000Y-117825000I75000J0D01*
G01*
X58500000Y-117825000D01*
G75*
G02*
X58575000Y-117900000I0J-75000D01*
G01*
X58575000Y-118050000D01*
G75*
G02*
X58500000Y-118125000I-75000J0D01*
G01*
X57100000Y-118125000D01*
G75*
G02*
X57025000Y-118050000I0J75000D01*
G01*
G37*
G36*
G01*
X57025000Y-117550000D02*
X57025000Y-117400000D01*
G75*
G02*
X57100000Y-117325000I75000J0D01*
G01*
X58500000Y-117325000D01*
G75*
G02*
X58575000Y-117400000I0J-75000D01*
G01*
X58575000Y-117550000D01*
G75*
G02*
X58500000Y-117625000I-75000J0D01*
G01*
X57100000Y-117625000D01*
G75*
G02*
X57025000Y-117550000I0J75000D01*
G01*
G37*
G36*
G01*
X57025000Y-117050000D02*
X57025000Y-116900000D01*
G75*
G02*
X57100000Y-116825000I75000J0D01*
G01*
X58500000Y-116825000D01*
G75*
G02*
X58575000Y-116900000I0J-75000D01*
G01*
X58575000Y-117050000D01*
G75*
G02*
X58500000Y-117125000I-75000J0D01*
G01*
X57100000Y-117125000D01*
G75*
G02*
X57025000Y-117050000I0J75000D01*
G01*
G37*
G36*
G01*
X57025000Y-116550000D02*
X57025000Y-116400000D01*
G75*
G02*
X57100000Y-116325000I75000J0D01*
G01*
X58500000Y-116325000D01*
G75*
G02*
X58575000Y-116400000I0J-75000D01*
G01*
X58575000Y-116550000D01*
G75*
G02*
X58500000Y-116625000I-75000J0D01*
G01*
X57100000Y-116625000D01*
G75*
G02*
X57025000Y-116550000I0J75000D01*
G01*
G37*
G36*
G01*
X57025000Y-116050000D02*
X57025000Y-115900000D01*
G75*
G02*
X57100000Y-115825000I75000J0D01*
G01*
X58500000Y-115825000D01*
G75*
G02*
X58575000Y-115900000I0J-75000D01*
G01*
X58575000Y-116050000D01*
G75*
G02*
X58500000Y-116125000I-75000J0D01*
G01*
X57100000Y-116125000D01*
G75*
G02*
X57025000Y-116050000I0J75000D01*
G01*
G37*
G36*
G01*
X57025000Y-115550000D02*
X57025000Y-115400000D01*
G75*
G02*
X57100000Y-115325000I75000J0D01*
G01*
X58500000Y-115325000D01*
G75*
G02*
X58575000Y-115400000I0J-75000D01*
G01*
X58575000Y-115550000D01*
G75*
G02*
X58500000Y-115625000I-75000J0D01*
G01*
X57100000Y-115625000D01*
G75*
G02*
X57025000Y-115550000I0J75000D01*
G01*
G37*
G36*
G01*
X57025000Y-115050000D02*
X57025000Y-114900000D01*
G75*
G02*
X57100000Y-114825000I75000J0D01*
G01*
X58500000Y-114825000D01*
G75*
G02*
X58575000Y-114900000I0J-75000D01*
G01*
X58575000Y-115050000D01*
G75*
G02*
X58500000Y-115125000I-75000J0D01*
G01*
X57100000Y-115125000D01*
G75*
G02*
X57025000Y-115050000I0J75000D01*
G01*
G37*
G36*
G01*
X57025000Y-114550000D02*
X57025000Y-114400000D01*
G75*
G02*
X57100000Y-114325000I75000J0D01*
G01*
X58500000Y-114325000D01*
G75*
G02*
X58575000Y-114400000I0J-75000D01*
G01*
X58575000Y-114550000D01*
G75*
G02*
X58500000Y-114625000I-75000J0D01*
G01*
X57100000Y-114625000D01*
G75*
G02*
X57025000Y-114550000I0J75000D01*
G01*
G37*
G36*
G01*
X57025000Y-114050000D02*
X57025000Y-113900000D01*
G75*
G02*
X57100000Y-113825000I75000J0D01*
G01*
X58500000Y-113825000D01*
G75*
G02*
X58575000Y-113900000I0J-75000D01*
G01*
X58575000Y-114050000D01*
G75*
G02*
X58500000Y-114125000I-75000J0D01*
G01*
X57100000Y-114125000D01*
G75*
G02*
X57025000Y-114050000I0J75000D01*
G01*
G37*
G36*
G01*
X57025000Y-113550000D02*
X57025000Y-113400000D01*
G75*
G02*
X57100000Y-113325000I75000J0D01*
G01*
X58500000Y-113325000D01*
G75*
G02*
X58575000Y-113400000I0J-75000D01*
G01*
X58575000Y-113550000D01*
G75*
G02*
X58500000Y-113625000I-75000J0D01*
G01*
X57100000Y-113625000D01*
G75*
G02*
X57025000Y-113550000I0J75000D01*
G01*
G37*
G36*
G01*
X57025000Y-113050000D02*
X57025000Y-112900000D01*
G75*
G02*
X57100000Y-112825000I75000J0D01*
G01*
X58500000Y-112825000D01*
G75*
G02*
X58575000Y-112900000I0J-75000D01*
G01*
X58575000Y-113050000D01*
G75*
G02*
X58500000Y-113125000I-75000J0D01*
G01*
X57100000Y-113125000D01*
G75*
G02*
X57025000Y-113050000I0J75000D01*
G01*
G37*
G36*
G01*
X57025000Y-112550000D02*
X57025000Y-112400000D01*
G75*
G02*
X57100000Y-112325000I75000J0D01*
G01*
X58500000Y-112325000D01*
G75*
G02*
X58575000Y-112400000I0J-75000D01*
G01*
X58575000Y-112550000D01*
G75*
G02*
X58500000Y-112625000I-75000J0D01*
G01*
X57100000Y-112625000D01*
G75*
G02*
X57025000Y-112550000I0J75000D01*
G01*
G37*
%TD*%
%TO.C,R21*%
G36*
G01*
X48037500Y-112540000D02*
X48512500Y-112540000D01*
G75*
G02*
X48750000Y-112777500I0J-237500D01*
G01*
X48750000Y-113277500D01*
G75*
G02*
X48512500Y-113515000I-237500J0D01*
G01*
X48037500Y-113515000D01*
G75*
G02*
X47800000Y-113277500I0J237500D01*
G01*
X47800000Y-112777500D01*
G75*
G02*
X48037500Y-112540000I237500J0D01*
G01*
G37*
G36*
G01*
X48037500Y-110715000D02*
X48512500Y-110715000D01*
G75*
G02*
X48750000Y-110952500I0J-237500D01*
G01*
X48750000Y-111452500D01*
G75*
G02*
X48512500Y-111690000I-237500J0D01*
G01*
X48037500Y-111690000D01*
G75*
G02*
X47800000Y-111452500I0J237500D01*
G01*
X47800000Y-110952500D01*
G75*
G02*
X48037500Y-110715000I237500J0D01*
G01*
G37*
%TD*%
%TO.C,R20*%
G36*
G01*
X48062500Y-109000000D02*
X48537500Y-109000000D01*
G75*
G02*
X48775000Y-109237500I0J-237500D01*
G01*
X48775000Y-109737500D01*
G75*
G02*
X48537500Y-109975000I-237500J0D01*
G01*
X48062500Y-109975000D01*
G75*
G02*
X47825000Y-109737500I0J237500D01*
G01*
X47825000Y-109237500D01*
G75*
G02*
X48062500Y-109000000I237500J0D01*
G01*
G37*
G36*
G01*
X48062500Y-107175000D02*
X48537500Y-107175000D01*
G75*
G02*
X48775000Y-107412500I0J-237500D01*
G01*
X48775000Y-107912500D01*
G75*
G02*
X48537500Y-108150000I-237500J0D01*
G01*
X48062500Y-108150000D01*
G75*
G02*
X47825000Y-107912500I0J237500D01*
G01*
X47825000Y-107412500D01*
G75*
G02*
X48062500Y-107175000I237500J0D01*
G01*
G37*
%TD*%
%TO.C,R19*%
G36*
G01*
X44612500Y-112700000D02*
X45087500Y-112700000D01*
G75*
G02*
X45325000Y-112937500I0J-237500D01*
G01*
X45325000Y-113437500D01*
G75*
G02*
X45087500Y-113675000I-237500J0D01*
G01*
X44612500Y-113675000D01*
G75*
G02*
X44375000Y-113437500I0J237500D01*
G01*
X44375000Y-112937500D01*
G75*
G02*
X44612500Y-112700000I237500J0D01*
G01*
G37*
G36*
G01*
X44612500Y-110875000D02*
X45087500Y-110875000D01*
G75*
G02*
X45325000Y-111112500I0J-237500D01*
G01*
X45325000Y-111612500D01*
G75*
G02*
X45087500Y-111850000I-237500J0D01*
G01*
X44612500Y-111850000D01*
G75*
G02*
X44375000Y-111612500I0J237500D01*
G01*
X44375000Y-111112500D01*
G75*
G02*
X44612500Y-110875000I237500J0D01*
G01*
G37*
%TD*%
%TO.C,R18*%
G36*
G01*
X44637500Y-109025000D02*
X45112500Y-109025000D01*
G75*
G02*
X45350000Y-109262500I0J-237500D01*
G01*
X45350000Y-109762500D01*
G75*
G02*
X45112500Y-110000000I-237500J0D01*
G01*
X44637500Y-110000000D01*
G75*
G02*
X44400000Y-109762500I0J237500D01*
G01*
X44400000Y-109262500D01*
G75*
G02*
X44637500Y-109025000I237500J0D01*
G01*
G37*
G36*
G01*
X44637500Y-107200000D02*
X45112500Y-107200000D01*
G75*
G02*
X45350000Y-107437500I0J-237500D01*
G01*
X45350000Y-107937500D01*
G75*
G02*
X45112500Y-108175000I-237500J0D01*
G01*
X44637500Y-108175000D01*
G75*
G02*
X44400000Y-107937500I0J237500D01*
G01*
X44400000Y-107437500D01*
G75*
G02*
X44637500Y-107200000I237500J0D01*
G01*
G37*
%TD*%
%TO.C,R17*%
G36*
G01*
X59637500Y-95287500D02*
X59162500Y-95287500D01*
G75*
G02*
X58925000Y-95050000I0J237500D01*
G01*
X58925000Y-94550000D01*
G75*
G02*
X59162500Y-94312500I237500J0D01*
G01*
X59637500Y-94312500D01*
G75*
G02*
X59875000Y-94550000I0J-237500D01*
G01*
X59875000Y-95050000D01*
G75*
G02*
X59637500Y-95287500I-237500J0D01*
G01*
G37*
G36*
G01*
X59637500Y-97112500D02*
X59162500Y-97112500D01*
G75*
G02*
X58925000Y-96875000I0J237500D01*
G01*
X58925000Y-96375000D01*
G75*
G02*
X59162500Y-96137500I237500J0D01*
G01*
X59637500Y-96137500D01*
G75*
G02*
X59875000Y-96375000I0J-237500D01*
G01*
X59875000Y-96875000D01*
G75*
G02*
X59637500Y-97112500I-237500J0D01*
G01*
G37*
%TD*%
%TO.C,R16*%
G36*
G01*
X59900000Y-98287500D02*
X59900000Y-98762500D01*
G75*
G02*
X59662500Y-99000000I-237500J0D01*
G01*
X59162500Y-99000000D01*
G75*
G02*
X58925000Y-98762500I0J237500D01*
G01*
X58925000Y-98287500D01*
G75*
G02*
X59162500Y-98050000I237500J0D01*
G01*
X59662500Y-98050000D01*
G75*
G02*
X59900000Y-98287500I0J-237500D01*
G01*
G37*
G36*
G01*
X61725000Y-98287500D02*
X61725000Y-98762500D01*
G75*
G02*
X61487500Y-99000000I-237500J0D01*
G01*
X60987500Y-99000000D01*
G75*
G02*
X60750000Y-98762500I0J237500D01*
G01*
X60750000Y-98287500D01*
G75*
G02*
X60987500Y-98050000I237500J0D01*
G01*
X61487500Y-98050000D01*
G75*
G02*
X61725000Y-98287500I0J-237500D01*
G01*
G37*
%TD*%
%TO.C,R15*%
G36*
G01*
X54500000Y-99012500D02*
X54500000Y-98537500D01*
G75*
G02*
X54737500Y-98300000I237500J0D01*
G01*
X55237500Y-98300000D01*
G75*
G02*
X55475000Y-98537500I0J-237500D01*
G01*
X55475000Y-99012500D01*
G75*
G02*
X55237500Y-99250000I-237500J0D01*
G01*
X54737500Y-99250000D01*
G75*
G02*
X54500000Y-99012500I0J237500D01*
G01*
G37*
G36*
G01*
X52675000Y-99012500D02*
X52675000Y-98537500D01*
G75*
G02*
X52912500Y-98300000I237500J0D01*
G01*
X53412500Y-98300000D01*
G75*
G02*
X53650000Y-98537500I0J-237500D01*
G01*
X53650000Y-99012500D01*
G75*
G02*
X53412500Y-99250000I-237500J0D01*
G01*
X52912500Y-99250000D01*
G75*
G02*
X52675000Y-99012500I0J237500D01*
G01*
G37*
%TD*%
%TO.C,R14*%
G36*
G01*
X52962500Y-95325000D02*
X53437500Y-95325000D01*
G75*
G02*
X53675000Y-95562500I0J-237500D01*
G01*
X53675000Y-96062500D01*
G75*
G02*
X53437500Y-96300000I-237500J0D01*
G01*
X52962500Y-96300000D01*
G75*
G02*
X52725000Y-96062500I0J237500D01*
G01*
X52725000Y-95562500D01*
G75*
G02*
X52962500Y-95325000I237500J0D01*
G01*
G37*
G36*
G01*
X52962500Y-93500000D02*
X53437500Y-93500000D01*
G75*
G02*
X53675000Y-93737500I0J-237500D01*
G01*
X53675000Y-94237500D01*
G75*
G02*
X53437500Y-94475000I-237500J0D01*
G01*
X52962500Y-94475000D01*
G75*
G02*
X52725000Y-94237500I0J237500D01*
G01*
X52725000Y-93737500D01*
G75*
G02*
X52962500Y-93500000I237500J0D01*
G01*
G37*
%TD*%
%TO.C,R13*%
G36*
G01*
X69112500Y-101337500D02*
X68637500Y-101337500D01*
G75*
G02*
X68400000Y-101100000I0J237500D01*
G01*
X68400000Y-100600000D01*
G75*
G02*
X68637500Y-100362500I237500J0D01*
G01*
X69112500Y-100362500D01*
G75*
G02*
X69350000Y-100600000I0J-237500D01*
G01*
X69350000Y-101100000D01*
G75*
G02*
X69112500Y-101337500I-237500J0D01*
G01*
G37*
G36*
G01*
X69112500Y-103162500D02*
X68637500Y-103162500D01*
G75*
G02*
X68400000Y-102925000I0J237500D01*
G01*
X68400000Y-102425000D01*
G75*
G02*
X68637500Y-102187500I237500J0D01*
G01*
X69112500Y-102187500D01*
G75*
G02*
X69350000Y-102425000I0J-237500D01*
G01*
X69350000Y-102925000D01*
G75*
G02*
X69112500Y-103162500I-237500J0D01*
G01*
G37*
%TD*%
%TO.C,R12*%
G36*
G01*
X69375000Y-104237500D02*
X69375000Y-104712500D01*
G75*
G02*
X69137500Y-104950000I-237500J0D01*
G01*
X68637500Y-104950000D01*
G75*
G02*
X68400000Y-104712500I0J237500D01*
G01*
X68400000Y-104237500D01*
G75*
G02*
X68637500Y-104000000I237500J0D01*
G01*
X69137500Y-104000000D01*
G75*
G02*
X69375000Y-104237500I0J-237500D01*
G01*
G37*
G36*
G01*
X71200000Y-104237500D02*
X71200000Y-104712500D01*
G75*
G02*
X70962500Y-104950000I-237500J0D01*
G01*
X70462500Y-104950000D01*
G75*
G02*
X70225000Y-104712500I0J237500D01*
G01*
X70225000Y-104237500D01*
G75*
G02*
X70462500Y-104000000I237500J0D01*
G01*
X70962500Y-104000000D01*
G75*
G02*
X71200000Y-104237500I0J-237500D01*
G01*
G37*
%TD*%
%TO.C,R11*%
G36*
G01*
X63537500Y-101287500D02*
X63062500Y-101287500D01*
G75*
G02*
X62825000Y-101050000I0J237500D01*
G01*
X62825000Y-100550000D01*
G75*
G02*
X63062500Y-100312500I237500J0D01*
G01*
X63537500Y-100312500D01*
G75*
G02*
X63775000Y-100550000I0J-237500D01*
G01*
X63775000Y-101050000D01*
G75*
G02*
X63537500Y-101287500I-237500J0D01*
G01*
G37*
G36*
G01*
X63537500Y-103112500D02*
X63062500Y-103112500D01*
G75*
G02*
X62825000Y-102875000I0J237500D01*
G01*
X62825000Y-102375000D01*
G75*
G02*
X63062500Y-102137500I237500J0D01*
G01*
X63537500Y-102137500D01*
G75*
G02*
X63775000Y-102375000I0J-237500D01*
G01*
X63775000Y-102875000D01*
G75*
G02*
X63537500Y-103112500I-237500J0D01*
G01*
G37*
%TD*%
%TO.C,R10*%
G36*
G01*
X63775000Y-104287500D02*
X63775000Y-104762500D01*
G75*
G02*
X63537500Y-105000000I-237500J0D01*
G01*
X63037500Y-105000000D01*
G75*
G02*
X62800000Y-104762500I0J237500D01*
G01*
X62800000Y-104287500D01*
G75*
G02*
X63037500Y-104050000I237500J0D01*
G01*
X63537500Y-104050000D01*
G75*
G02*
X63775000Y-104287500I0J-237500D01*
G01*
G37*
G36*
G01*
X65600000Y-104287500D02*
X65600000Y-104762500D01*
G75*
G02*
X65362500Y-105000000I-237500J0D01*
G01*
X64862500Y-105000000D01*
G75*
G02*
X64625000Y-104762500I0J237500D01*
G01*
X64625000Y-104287500D01*
G75*
G02*
X64862500Y-104050000I237500J0D01*
G01*
X65362500Y-104050000D01*
G75*
G02*
X65600000Y-104287500I0J-237500D01*
G01*
G37*
%TD*%
%TO.C,R9*%
G36*
G01*
X64987500Y-127100000D02*
X65462500Y-127100000D01*
G75*
G02*
X65700000Y-127337500I0J-237500D01*
G01*
X65700000Y-127837500D01*
G75*
G02*
X65462500Y-128075000I-237500J0D01*
G01*
X64987500Y-128075000D01*
G75*
G02*
X64750000Y-127837500I0J237500D01*
G01*
X64750000Y-127337500D01*
G75*
G02*
X64987500Y-127100000I237500J0D01*
G01*
G37*
G36*
G01*
X64987500Y-125275000D02*
X65462500Y-125275000D01*
G75*
G02*
X65700000Y-125512500I0J-237500D01*
G01*
X65700000Y-126012500D01*
G75*
G02*
X65462500Y-126250000I-237500J0D01*
G01*
X64987500Y-126250000D01*
G75*
G02*
X64750000Y-126012500I0J237500D01*
G01*
X64750000Y-125512500D01*
G75*
G02*
X64987500Y-125275000I237500J0D01*
G01*
G37*
%TD*%
%TO.C,R8*%
G36*
G01*
X56125000Y-106937500D02*
X56125000Y-107412500D01*
G75*
G02*
X55887500Y-107650000I-237500J0D01*
G01*
X55387500Y-107650000D01*
G75*
G02*
X55150000Y-107412500I0J237500D01*
G01*
X55150000Y-106937500D01*
G75*
G02*
X55387500Y-106700000I237500J0D01*
G01*
X55887500Y-106700000D01*
G75*
G02*
X56125000Y-106937500I0J-237500D01*
G01*
G37*
G36*
G01*
X57950000Y-106937500D02*
X57950000Y-107412500D01*
G75*
G02*
X57712500Y-107650000I-237500J0D01*
G01*
X57212500Y-107650000D01*
G75*
G02*
X56975000Y-107412500I0J237500D01*
G01*
X56975000Y-106937500D01*
G75*
G02*
X57212500Y-106700000I237500J0D01*
G01*
X57712500Y-106700000D01*
G75*
G02*
X57950000Y-106937500I0J-237500D01*
G01*
G37*
%TD*%
%TO.C,R7*%
G36*
G01*
X47687500Y-117225000D02*
X47212500Y-117225000D01*
G75*
G02*
X46975000Y-116987500I0J237500D01*
G01*
X46975000Y-116487500D01*
G75*
G02*
X47212500Y-116250000I237500J0D01*
G01*
X47687500Y-116250000D01*
G75*
G02*
X47925000Y-116487500I0J-237500D01*
G01*
X47925000Y-116987500D01*
G75*
G02*
X47687500Y-117225000I-237500J0D01*
G01*
G37*
G36*
G01*
X47687500Y-119050000D02*
X47212500Y-119050000D01*
G75*
G02*
X46975000Y-118812500I0J237500D01*
G01*
X46975000Y-118312500D01*
G75*
G02*
X47212500Y-118075000I237500J0D01*
G01*
X47687500Y-118075000D01*
G75*
G02*
X47925000Y-118312500I0J-237500D01*
G01*
X47925000Y-118812500D01*
G75*
G02*
X47687500Y-119050000I-237500J0D01*
G01*
G37*
%TD*%
%TO.C,R6*%
G36*
G01*
X99075000Y-14912500D02*
X99075000Y-14437500D01*
G75*
G02*
X99312500Y-14200000I237500J0D01*
G01*
X99812500Y-14200000D01*
G75*
G02*
X100050000Y-14437500I0J-237500D01*
G01*
X100050000Y-14912500D01*
G75*
G02*
X99812500Y-15150000I-237500J0D01*
G01*
X99312500Y-15150000D01*
G75*
G02*
X99075000Y-14912500I0J237500D01*
G01*
G37*
G36*
G01*
X97250000Y-14912500D02*
X97250000Y-14437500D01*
G75*
G02*
X97487500Y-14200000I237500J0D01*
G01*
X97987500Y-14200000D01*
G75*
G02*
X98225000Y-14437500I0J-237500D01*
G01*
X98225000Y-14912500D01*
G75*
G02*
X97987500Y-15150000I-237500J0D01*
G01*
X97487500Y-15150000D01*
G75*
G02*
X97250000Y-14912500I0J237500D01*
G01*
G37*
%TD*%
%TO.C,R5*%
G36*
G01*
X99725000Y-44137500D02*
X99725000Y-43662500D01*
G75*
G02*
X99962500Y-43425000I237500J0D01*
G01*
X100462500Y-43425000D01*
G75*
G02*
X100700000Y-43662500I0J-237500D01*
G01*
X100700000Y-44137500D01*
G75*
G02*
X100462500Y-44375000I-237500J0D01*
G01*
X99962500Y-44375000D01*
G75*
G02*
X99725000Y-44137500I0J237500D01*
G01*
G37*
G36*
G01*
X97900000Y-44137500D02*
X97900000Y-43662500D01*
G75*
G02*
X98137500Y-43425000I237500J0D01*
G01*
X98637500Y-43425000D01*
G75*
G02*
X98875000Y-43662500I0J-237500D01*
G01*
X98875000Y-44137500D01*
G75*
G02*
X98637500Y-44375000I-237500J0D01*
G01*
X98137500Y-44375000D01*
G75*
G02*
X97900000Y-44137500I0J237500D01*
G01*
G37*
%TD*%
%TO.C,R4*%
G36*
G01*
X99475000Y-105837500D02*
X99475000Y-105362500D01*
G75*
G02*
X99712500Y-105125000I237500J0D01*
G01*
X100212500Y-105125000D01*
G75*
G02*
X100450000Y-105362500I0J-237500D01*
G01*
X100450000Y-105837500D01*
G75*
G02*
X100212500Y-106075000I-237500J0D01*
G01*
X99712500Y-106075000D01*
G75*
G02*
X99475000Y-105837500I0J237500D01*
G01*
G37*
G36*
G01*
X97650000Y-105837500D02*
X97650000Y-105362500D01*
G75*
G02*
X97887500Y-105125000I237500J0D01*
G01*
X98387500Y-105125000D01*
G75*
G02*
X98625000Y-105362500I0J-237500D01*
G01*
X98625000Y-105837500D01*
G75*
G02*
X98387500Y-106075000I-237500J0D01*
G01*
X97887500Y-106075000D01*
G75*
G02*
X97650000Y-105837500I0J237500D01*
G01*
G37*
%TD*%
%TO.C,R3*%
G36*
G01*
X99725000Y-73987500D02*
X99725000Y-73512500D01*
G75*
G02*
X99962500Y-73275000I237500J0D01*
G01*
X100462500Y-73275000D01*
G75*
G02*
X100700000Y-73512500I0J-237500D01*
G01*
X100700000Y-73987500D01*
G75*
G02*
X100462500Y-74225000I-237500J0D01*
G01*
X99962500Y-74225000D01*
G75*
G02*
X99725000Y-73987500I0J237500D01*
G01*
G37*
G36*
G01*
X97900000Y-73987500D02*
X97900000Y-73512500D01*
G75*
G02*
X98137500Y-73275000I237500J0D01*
G01*
X98637500Y-73275000D01*
G75*
G02*
X98875000Y-73512500I0J-237500D01*
G01*
X98875000Y-73987500D01*
G75*
G02*
X98637500Y-74225000I-237500J0D01*
G01*
X98137500Y-74225000D01*
G75*
G02*
X97900000Y-73987500I0J237500D01*
G01*
G37*
%TD*%
%TO.C,R2*%
G36*
G01*
X100206562Y-165751356D02*
X100206562Y-165276356D01*
G75*
G02*
X100444062Y-165038856I237500J0D01*
G01*
X100944062Y-165038856D01*
G75*
G02*
X101181562Y-165276356I0J-237500D01*
G01*
X101181562Y-165751356D01*
G75*
G02*
X100944062Y-165988856I-237500J0D01*
G01*
X100444062Y-165988856D01*
G75*
G02*
X100206562Y-165751356I0J237500D01*
G01*
G37*
G36*
G01*
X98381562Y-165751356D02*
X98381562Y-165276356D01*
G75*
G02*
X98619062Y-165038856I237500J0D01*
G01*
X99119062Y-165038856D01*
G75*
G02*
X99356562Y-165276356I0J-237500D01*
G01*
X99356562Y-165751356D01*
G75*
G02*
X99119062Y-165988856I-237500J0D01*
G01*
X98619062Y-165988856D01*
G75*
G02*
X98381562Y-165751356I0J237500D01*
G01*
G37*
%TD*%
%TO.C,R1*%
G36*
G01*
X98725000Y-134787500D02*
X98725000Y-134312500D01*
G75*
G02*
X98962500Y-134075000I237500J0D01*
G01*
X99462500Y-134075000D01*
G75*
G02*
X99700000Y-134312500I0J-237500D01*
G01*
X99700000Y-134787500D01*
G75*
G02*
X99462500Y-135025000I-237500J0D01*
G01*
X98962500Y-135025000D01*
G75*
G02*
X98725000Y-134787500I0J237500D01*
G01*
G37*
G36*
G01*
X96900000Y-134787500D02*
X96900000Y-134312500D01*
G75*
G02*
X97137500Y-134075000I237500J0D01*
G01*
X97637500Y-134075000D01*
G75*
G02*
X97875000Y-134312500I0J-237500D01*
G01*
X97875000Y-134787500D01*
G75*
G02*
X97637500Y-135025000I-237500J0D01*
G01*
X97137500Y-135025000D01*
G75*
G02*
X96900000Y-134787500I0J237500D01*
G01*
G37*
%TD*%
%TO.C,C12*%
G36*
G01*
X53275000Y-138787500D02*
X53275000Y-139262500D01*
G75*
G02*
X53037500Y-139500000I-237500J0D01*
G01*
X52437500Y-139500000D01*
G75*
G02*
X52200000Y-139262500I0J237500D01*
G01*
X52200000Y-138787500D01*
G75*
G02*
X52437500Y-138550000I237500J0D01*
G01*
X53037500Y-138550000D01*
G75*
G02*
X53275000Y-138787500I0J-237500D01*
G01*
G37*
G36*
G01*
X55000000Y-138787500D02*
X55000000Y-139262500D01*
G75*
G02*
X54762500Y-139500000I-237500J0D01*
G01*
X54162500Y-139500000D01*
G75*
G02*
X53925000Y-139262500I0J237500D01*
G01*
X53925000Y-138787500D01*
G75*
G02*
X54162500Y-138550000I237500J0D01*
G01*
X54762500Y-138550000D01*
G75*
G02*
X55000000Y-138787500I0J-237500D01*
G01*
G37*
%TD*%
%TO.C,C10*%
G36*
G01*
X68125000Y-164587500D02*
X68125000Y-164112500D01*
G75*
G02*
X68362500Y-163875000I237500J0D01*
G01*
X68962500Y-163875000D01*
G75*
G02*
X69200000Y-164112500I0J-237500D01*
G01*
X69200000Y-164587500D01*
G75*
G02*
X68962500Y-164825000I-237500J0D01*
G01*
X68362500Y-164825000D01*
G75*
G02*
X68125000Y-164587500I0J237500D01*
G01*
G37*
G36*
G01*
X66400000Y-164587500D02*
X66400000Y-164112500D01*
G75*
G02*
X66637500Y-163875000I237500J0D01*
G01*
X67237500Y-163875000D01*
G75*
G02*
X67475000Y-164112500I0J-237500D01*
G01*
X67475000Y-164587500D01*
G75*
G02*
X67237500Y-164825000I-237500J0D01*
G01*
X66637500Y-164825000D01*
G75*
G02*
X66400000Y-164587500I0J237500D01*
G01*
G37*
%TD*%
%TO.C,C9*%
G36*
G01*
X51475000Y-118712500D02*
X51475000Y-118237500D01*
G75*
G02*
X51712500Y-118000000I237500J0D01*
G01*
X52312500Y-118000000D01*
G75*
G02*
X52550000Y-118237500I0J-237500D01*
G01*
X52550000Y-118712500D01*
G75*
G02*
X52312500Y-118950000I-237500J0D01*
G01*
X51712500Y-118950000D01*
G75*
G02*
X51475000Y-118712500I0J237500D01*
G01*
G37*
G36*
G01*
X53200000Y-118712500D02*
X53200000Y-118237500D01*
G75*
G02*
X53437500Y-118000000I237500J0D01*
G01*
X54037500Y-118000000D01*
G75*
G02*
X54275000Y-118237500I0J-237500D01*
G01*
X54275000Y-118712500D01*
G75*
G02*
X54037500Y-118950000I-237500J0D01*
G01*
X53437500Y-118950000D01*
G75*
G02*
X53200000Y-118712500I0J237500D01*
G01*
G37*
%TD*%
%TO.C,C8*%
G36*
G01*
X60250000Y-106937500D02*
X60250000Y-107412500D01*
G75*
G02*
X60012500Y-107650000I-237500J0D01*
G01*
X59412500Y-107650000D01*
G75*
G02*
X59175000Y-107412500I0J237500D01*
G01*
X59175000Y-106937500D01*
G75*
G02*
X59412500Y-106700000I237500J0D01*
G01*
X60012500Y-106700000D01*
G75*
G02*
X60250000Y-106937500I0J-237500D01*
G01*
G37*
G36*
G01*
X61975000Y-106937500D02*
X61975000Y-107412500D01*
G75*
G02*
X61737500Y-107650000I-237500J0D01*
G01*
X61137500Y-107650000D01*
G75*
G02*
X60900000Y-107412500I0J237500D01*
G01*
X60900000Y-106937500D01*
G75*
G02*
X61137500Y-106700000I237500J0D01*
G01*
X61737500Y-106700000D01*
G75*
G02*
X61975000Y-106937500I0J-237500D01*
G01*
G37*
%TD*%
%TO.C,C7*%
G36*
G01*
X70925000Y-109837500D02*
X70925000Y-110312500D01*
G75*
G02*
X70687500Y-110550000I-237500J0D01*
G01*
X70087500Y-110550000D01*
G75*
G02*
X69850000Y-110312500I0J237500D01*
G01*
X69850000Y-109837500D01*
G75*
G02*
X70087500Y-109600000I237500J0D01*
G01*
X70687500Y-109600000D01*
G75*
G02*
X70925000Y-109837500I0J-237500D01*
G01*
G37*
G36*
G01*
X72650000Y-109837500D02*
X72650000Y-110312500D01*
G75*
G02*
X72412500Y-110550000I-237500J0D01*
G01*
X71812500Y-110550000D01*
G75*
G02*
X71575000Y-110312500I0J237500D01*
G01*
X71575000Y-109837500D01*
G75*
G02*
X71812500Y-109600000I237500J0D01*
G01*
X72412500Y-109600000D01*
G75*
G02*
X72650000Y-109837500I0J-237500D01*
G01*
G37*
%TD*%
%TO.C,C6*%
G36*
G01*
X60962500Y-126350000D02*
X60487500Y-126350000D01*
G75*
G02*
X60250000Y-126112500I0J237500D01*
G01*
X60250000Y-125512500D01*
G75*
G02*
X60487500Y-125275000I237500J0D01*
G01*
X60962500Y-125275000D01*
G75*
G02*
X61200000Y-125512500I0J-237500D01*
G01*
X61200000Y-126112500D01*
G75*
G02*
X60962500Y-126350000I-237500J0D01*
G01*
G37*
G36*
G01*
X60962500Y-128075000D02*
X60487500Y-128075000D01*
G75*
G02*
X60250000Y-127837500I0J237500D01*
G01*
X60250000Y-127237500D01*
G75*
G02*
X60487500Y-127000000I237500J0D01*
G01*
X60962500Y-127000000D01*
G75*
G02*
X61200000Y-127237500I0J-237500D01*
G01*
X61200000Y-127837500D01*
G75*
G02*
X60962500Y-128075000I-237500J0D01*
G01*
G37*
%TD*%
%TO.C,C5*%
G36*
G01*
X55287500Y-110500000D02*
X55762500Y-110500000D01*
G75*
G02*
X56000000Y-110737500I0J-237500D01*
G01*
X56000000Y-111337500D01*
G75*
G02*
X55762500Y-111575000I-237500J0D01*
G01*
X55287500Y-111575000D01*
G75*
G02*
X55050000Y-111337500I0J237500D01*
G01*
X55050000Y-110737500D01*
G75*
G02*
X55287500Y-110500000I237500J0D01*
G01*
G37*
G36*
G01*
X55287500Y-108775000D02*
X55762500Y-108775000D01*
G75*
G02*
X56000000Y-109012500I0J-237500D01*
G01*
X56000000Y-109612500D01*
G75*
G02*
X55762500Y-109850000I-237500J0D01*
G01*
X55287500Y-109850000D01*
G75*
G02*
X55050000Y-109612500I0J237500D01*
G01*
X55050000Y-109012500D01*
G75*
G02*
X55287500Y-108775000I237500J0D01*
G01*
G37*
%TD*%
%TO.C,C4*%
G36*
G01*
X69037500Y-126987500D02*
X69512500Y-126987500D01*
G75*
G02*
X69750000Y-127225000I0J-237500D01*
G01*
X69750000Y-127825000D01*
G75*
G02*
X69512500Y-128062500I-237500J0D01*
G01*
X69037500Y-128062500D01*
G75*
G02*
X68800000Y-127825000I0J237500D01*
G01*
X68800000Y-127225000D01*
G75*
G02*
X69037500Y-126987500I237500J0D01*
G01*
G37*
G36*
G01*
X69037500Y-125262500D02*
X69512500Y-125262500D01*
G75*
G02*
X69750000Y-125500000I0J-237500D01*
G01*
X69750000Y-126100000D01*
G75*
G02*
X69512500Y-126337500I-237500J0D01*
G01*
X69037500Y-126337500D01*
G75*
G02*
X68800000Y-126100000I0J237500D01*
G01*
X68800000Y-125500000D01*
G75*
G02*
X69037500Y-125262500I237500J0D01*
G01*
G37*
%TD*%
%TO.C,C3*%
G36*
G01*
X49462500Y-122950000D02*
X48987500Y-122950000D01*
G75*
G02*
X48750000Y-122712500I0J237500D01*
G01*
X48750000Y-122112500D01*
G75*
G02*
X48987500Y-121875000I237500J0D01*
G01*
X49462500Y-121875000D01*
G75*
G02*
X49700000Y-122112500I0J-237500D01*
G01*
X49700000Y-122712500D01*
G75*
G02*
X49462500Y-122950000I-237500J0D01*
G01*
G37*
G36*
G01*
X49462500Y-124675000D02*
X48987500Y-124675000D01*
G75*
G02*
X48750000Y-124437500I0J237500D01*
G01*
X48750000Y-123837500D01*
G75*
G02*
X48987500Y-123600000I237500J0D01*
G01*
X49462500Y-123600000D01*
G75*
G02*
X49700000Y-123837500I0J-237500D01*
G01*
X49700000Y-124437500D01*
G75*
G02*
X49462500Y-124675000I-237500J0D01*
G01*
G37*
%TD*%
%TO.C,C2*%
G36*
G01*
X36412500Y-124575000D02*
X36887500Y-124575000D01*
G75*
G02*
X37125000Y-124812500I0J-237500D01*
G01*
X37125000Y-125412500D01*
G75*
G02*
X36887500Y-125650000I-237500J0D01*
G01*
X36412500Y-125650000D01*
G75*
G02*
X36175000Y-125412500I0J237500D01*
G01*
X36175000Y-124812500D01*
G75*
G02*
X36412500Y-124575000I237500J0D01*
G01*
G37*
G36*
G01*
X36412500Y-122850000D02*
X36887500Y-122850000D01*
G75*
G02*
X37125000Y-123087500I0J-237500D01*
G01*
X37125000Y-123687500D01*
G75*
G02*
X36887500Y-123925000I-237500J0D01*
G01*
X36412500Y-123925000D01*
G75*
G02*
X36175000Y-123687500I0J237500D01*
G01*
X36175000Y-123087500D01*
G75*
G02*
X36412500Y-122850000I237500J0D01*
G01*
G37*
%TD*%
D10*
%TO.C,Y1*%
X40250000Y-122400000D03*
X46150000Y-122400000D03*
X46150000Y-125100000D03*
X40250000Y-125100000D03*
%TD*%
D11*
%TO.C,U2*%
G36*
X52475000Y-132875000D02*
G01*
X52475000Y-131175000D01*
X53475000Y-131175000D01*
X53475000Y-132875000D01*
X53975000Y-133375000D01*
X53975000Y-134175000D01*
X53475000Y-134675000D01*
X53475000Y-136375000D01*
X52475000Y-136375000D01*
X52475000Y-134675000D01*
X51975000Y-134175000D01*
X51975000Y-133375000D01*
X52475000Y-132875000D01*
G37*
D12*
X54475000Y-135625000D03*
X51475000Y-135625000D03*
X54475000Y-131925000D03*
X51475000Y-131925000D03*
%TD*%
D13*
%TO.C,Q6*%
X103600000Y-14671361D03*
X103600000Y-16571361D03*
X105700000Y-15621361D03*
%TD*%
%TO.C,Q5*%
X104250000Y-43900000D03*
X104250000Y-45800000D03*
X106350000Y-44850000D03*
%TD*%
%TO.C,Q4*%
X104000000Y-105600000D03*
X104000000Y-107500000D03*
X106100000Y-106550000D03*
%TD*%
%TO.C,Q3*%
X104250000Y-73750000D03*
X104250000Y-75650000D03*
X106350000Y-74700000D03*
%TD*%
%TO.C,Q2*%
X103731562Y-165513856D03*
X103731562Y-167413856D03*
X105831562Y-166463856D03*
%TD*%
%TO.C,Q1*%
X103250000Y-134550000D03*
X103250000Y-136450000D03*
X105350000Y-135500000D03*
%TD*%
D14*
%TO.C,J7*%
X64775000Y-178550000D03*
D15*
X65775000Y-175850000D03*
X66425000Y-175850000D03*
X67075000Y-175850000D03*
X64475000Y-175850000D03*
X65125000Y-175850000D03*
D14*
X66775000Y-178550000D03*
%TD*%
%TO.C,C13*%
G36*
G01*
X52875000Y-128700000D02*
X52875000Y-127750000D01*
G75*
G02*
X53125000Y-127500000I250000J0D01*
G01*
X53625000Y-127500000D01*
G75*
G02*
X53875000Y-127750000I0J-250000D01*
G01*
X53875000Y-128700000D01*
G75*
G02*
X53625000Y-128950000I-250000J0D01*
G01*
X53125000Y-128950000D01*
G75*
G02*
X52875000Y-128700000I0J250000D01*
G01*
G37*
G36*
G01*
X50975000Y-128700000D02*
X50975000Y-127750000D01*
G75*
G02*
X51225000Y-127500000I250000J0D01*
G01*
X51725000Y-127500000D01*
G75*
G02*
X51975000Y-127750000I0J-250000D01*
G01*
X51975000Y-128700000D01*
G75*
G02*
X51725000Y-128950000I-250000J0D01*
G01*
X51225000Y-128950000D01*
G75*
G02*
X50975000Y-128700000I0J250000D01*
G01*
G37*
%TD*%
%TO.C,C11*%
G36*
G01*
X68325000Y-168575000D02*
X68325000Y-167625000D01*
G75*
G02*
X68575000Y-167375000I250000J0D01*
G01*
X69075000Y-167375000D01*
G75*
G02*
X69325000Y-167625000I0J-250000D01*
G01*
X69325000Y-168575000D01*
G75*
G02*
X69075000Y-168825000I-250000J0D01*
G01*
X68575000Y-168825000D01*
G75*
G02*
X68325000Y-168575000I0J250000D01*
G01*
G37*
G36*
G01*
X66425000Y-168575000D02*
X66425000Y-167625000D01*
G75*
G02*
X66675000Y-167375000I250000J0D01*
G01*
X67175000Y-167375000D01*
G75*
G02*
X67425000Y-167625000I0J-250000D01*
G01*
X67425000Y-168575000D01*
G75*
G02*
X67175000Y-168825000I-250000J0D01*
G01*
X66675000Y-168825000D01*
G75*
G02*
X66425000Y-168575000I0J250000D01*
G01*
G37*
%TD*%
M02*
