M48
; DRILL file {KiCad (5.1.10)-1} date 08/19/21 16:33:49
; FORMAT={-:-/ absolute / metric / decimal}
; #@! TF.CreationDate,2021-08-19T16:33:49+09:00
; #@! TF.GenerationSoftware,Kicad,Pcbnew,(5.1.10)-1
; #@! TF.FileFunction,Plated,1,2,PTH
FMAT,2
METRIC
T1C0.300
T2C0.350
T3C0.500
T4C0.600
T5C0.850
T6C1.000
T7C1.100
T8C1.300
T9C1.600
T10C1.950
%
G90
G05
T1
X46.425Y-111.35
X49.925Y-111.175
X50.125Y-130.35
X51.45Y-120.05
X51.475Y-124.85
X52.975Y-122.325
X54.225Y-105.975
X57.175Y-121.75
X58.575Y-108.925
X58.9Y-127.575
X59.114Y-113.382
X59.125Y-105.975
X59.55Y-114.5
X59.7Y-124.15
X60.225Y-111.875
X60.225Y-115.475
X60.7Y-124.175
X61.55Y-108.925
X62.225Y-118.975
X62.975Y-119.3
X63.425Y-127.05
X64.6Y-123.75
X66.05Y-120.275
X67.225Y-123.75
X67.25Y-113.225
X68.9Y-122.125
X69.425Y-108.5
X70.925Y-116.05
X70.925Y-131.15
X72.9Y-114.975
X73.45Y-131.1
X74.3Y-26.2
X74.499Y-119.826
X75.45Y-117.825
X75.7Y-119.45
X75.9Y-93.175
X76.625Y-127.55
X80.95Y-128.275
X81.525Y-129.45
X82.3Y-52.6
X82.675Y-14.7
X83.35Y-127.475
X89.325Y-128.325
X89.725Y-112.4
X90.175Y-49.55
X90.175Y-129.075
X90.7Y-110.975
T2
X90.25Y-167.425
X103.45Y-161.575
T3
X44.175Y-132.725
X44.175Y-133.975
X44.175Y-135.225
X44.175Y-136.475
X79.75Y-116.875
X79.75Y-118.125
X79.75Y-119.375
X79.75Y-120.625
X79.75Y-121.875
T5
X63.275Y-175.85
X68.275Y-175.85
T6
X53.9Y-151.15
X53.9Y-153.69
X53.9Y-156.23
X53.9Y-158.77
X56.67Y-17.925
X59.21Y-17.925
X61.75Y-17.925
X64.29Y-17.925
X66.83Y-17.925
X69.37Y-17.925
X70.91Y-135.775
X71.91Y-17.925
X73.45Y-135.775
X74.45Y-17.925
X75.99Y-135.775
X78.53Y-135.775
X123.025Y-9.75
X123.025Y-21.75
X123.25Y-39.75
X123.25Y-51.75
X123.95Y-69.75
X123.95Y-81.75
X123.95Y-99.75
X123.95Y-111.75
X123.95Y-129.75
X123.95Y-141.75
X123.95Y-159.75
X123.95Y-171.75
T7
X113.0Y-11.6
X113.0Y-21.76
X113.0Y-41.625
X113.0Y-51.785
X113.0Y-71.6
X113.0Y-81.76
X113.0Y-101.6
X113.0Y-111.76
X113.0Y-131.6
X113.0Y-141.76
X113.0Y-161.6
X113.0Y-171.76
T8
X70.625Y-47.15
X73.175Y-91.775
X121.075Y-15.7
X121.3Y-45.7
X122.0Y-75.7
X122.0Y-105.7
X122.0Y-135.7
X122.0Y-165.7
X135.225Y-21.75
X135.275Y-9.7
X135.45Y-51.75
X135.5Y-39.7
X136.15Y-81.75
X136.15Y-111.75
X136.15Y-141.75
X136.15Y-171.75
X136.2Y-69.7
X136.2Y-99.7
X136.2Y-129.7
X136.2Y-159.7
X162.075Y-8.26
X162.075Y-23.5
X162.3Y-38.26
X162.3Y-53.5
X163.0Y-68.235
X163.0Y-83.475
X163.0Y-98.01
X163.0Y-113.25
X163.0Y-128.285
X163.0Y-143.525
X163.0Y-158.26
X163.0Y-173.5
T9
X149.075Y-8.5
X149.075Y-16.0
X149.075Y-23.5
X149.3Y-38.5
X149.3Y-46.0
X149.3Y-53.5
X150.0Y-68.5
X150.0Y-76.0
X150.0Y-83.5
X150.0Y-98.25
X150.0Y-105.75
X150.0Y-113.25
X150.0Y-128.5
X150.0Y-136.0
X150.0Y-143.5
X150.0Y-158.5
X150.0Y-166.0
X150.0Y-173.5
T10
X57.975Y-2.7
X61.7Y-41.55
X65.625Y-34.2
X87.175Y-111.7
X130.8Y-152.9
X140.525Y-33.575
T4
G00X62.275Y-178.9
M15
G01X62.275Y-178.2
M16
G05
G00X69.275Y-178.2
M15
G01X69.275Y-178.9
M16
G05
T0
M30
