%TF.GenerationSoftware,KiCad,Pcbnew,(5.1.10)-1*%
%TF.CreationDate,2021-07-23T15:11:29+09:00*%
%TF.ProjectId,ZeroGravity,5a65726f-4772-4617-9669-74792e6b6963,rev?*%
%TF.SameCoordinates,Original*%
%TF.FileFunction,Soldermask,Bot*%
%TF.FilePolarity,Negative*%
%FSLAX46Y46*%
G04 Gerber Fmt 4.6, Leading zero omitted, Abs format (unit mm)*
G04 Created by KiCad (PCBNEW (5.1.10)-1) date 2021-07-23 15:11:29*
%MOMM*%
%LPD*%
G01*
G04 APERTURE LIST*
%ADD10O,1.300000X0.800000*%
%ADD11O,0.800000X1.300000*%
G04 APERTURE END LIST*
%TO.C,J4*%
G36*
G01*
X103200000Y-103700000D02*
X102300000Y-103700000D01*
G75*
G02*
X102100000Y-103500000I0J200000D01*
G01*
X102100000Y-103100000D01*
G75*
G02*
X102300000Y-102900000I200000J0D01*
G01*
X103200000Y-102900000D01*
G75*
G02*
X103400000Y-103100000I0J-200000D01*
G01*
X103400000Y-103500000D01*
G75*
G02*
X103200000Y-103700000I-200000J0D01*
G01*
G37*
D10*
X102750000Y-102050000D03*
X102750000Y-100800000D03*
X102750000Y-99550000D03*
%TD*%
%TO.C,J5*%
G36*
G01*
X107150000Y-117650000D02*
X107150000Y-116750000D01*
G75*
G02*
X107350000Y-116550000I200000J0D01*
G01*
X107750000Y-116550000D01*
G75*
G02*
X107950000Y-116750000I0J-200000D01*
G01*
X107950000Y-117650000D01*
G75*
G02*
X107750000Y-117850000I-200000J0D01*
G01*
X107350000Y-117850000D01*
G75*
G02*
X107150000Y-117650000I0J200000D01*
G01*
G37*
D11*
X108800000Y-117200000D03*
X110050000Y-117200000D03*
X111300000Y-117200000D03*
X112550000Y-117200000D03*
%TD*%
%TO.C,J6*%
G36*
G01*
X138550000Y-59700000D02*
X138550000Y-60600000D01*
G75*
G02*
X138350000Y-60800000I-200000J0D01*
G01*
X137950000Y-60800000D01*
G75*
G02*
X137750000Y-60600000I0J200000D01*
G01*
X137750000Y-59700000D01*
G75*
G02*
X137950000Y-59500000I200000J0D01*
G01*
X138350000Y-59500000D01*
G75*
G02*
X138550000Y-59700000I0J-200000D01*
G01*
G37*
X136900000Y-60150000D03*
X135650000Y-60150000D03*
%TD*%
D10*
%TO.C,J2*%
X177350000Y-77400000D03*
G36*
G01*
X177800000Y-79050000D02*
X176900000Y-79050000D01*
G75*
G02*
X176700000Y-78850000I0J200000D01*
G01*
X176700000Y-78450000D01*
G75*
G02*
X176900000Y-78250000I200000J0D01*
G01*
X177800000Y-78250000D01*
G75*
G02*
X178000000Y-78450000I0J-200000D01*
G01*
X178000000Y-78850000D01*
G75*
G02*
X177800000Y-79050000I-200000J0D01*
G01*
G37*
%TD*%
%TO.C,J3*%
G36*
G01*
X178150000Y-96700000D02*
X177250000Y-96700000D01*
G75*
G02*
X177050000Y-96500000I0J200000D01*
G01*
X177050000Y-96100000D01*
G75*
G02*
X177250000Y-95900000I200000J0D01*
G01*
X178150000Y-95900000D01*
G75*
G02*
X178350000Y-96100000I0J-200000D01*
G01*
X178350000Y-96500000D01*
G75*
G02*
X178150000Y-96700000I-200000J0D01*
G01*
G37*
X177700000Y-95050000D03*
%TD*%
%TO.C,J1*%
G36*
G01*
X168450000Y-70800000D02*
X167550000Y-70800000D01*
G75*
G02*
X167350000Y-70600000I0J200000D01*
G01*
X167350000Y-70200000D01*
G75*
G02*
X167550000Y-70000000I200000J0D01*
G01*
X168450000Y-70000000D01*
G75*
G02*
X168650000Y-70200000I0J-200000D01*
G01*
X168650000Y-70600000D01*
G75*
G02*
X168450000Y-70800000I-200000J0D01*
G01*
G37*
X168000000Y-69150000D03*
%TD*%
M02*
